<?xml version="1.0" encoding="utf-8"?>
<!-- Generator: Adobe Illustrator 24.0.0, SVG Export Plug-In . SVG Version: 6.00 Build 0)  -->
<svg version="1.1" id="Calque_1" focusable="false" xmlns="http://www.w3.org/2000/svg" xmlns:xlink="http://www.w3.org/1999/xlink"
	 x="0px" y="0px" viewBox="0 0 512 512" style="enable-background:new 0 0 512 512;" xml:space="preserve">
<style type="text/css">
	.st0{fill:#26A65B;}
	.st1{fill:#1A8244;}
	.st2{fill:#FFFFFF;}
</style>
<rect class="st0" width="512" height="512"/>
<path class="st1" d="M389,193.5h-4.7v-27.9c0-26.1-57.7-46.5-130.3-46.5s-130.3,20.5-130.3,46.5v27.9h-4.7c-7.7,0-14,6.2-14,14V254
	c0,7.7,6.3,14,14,14h4.7v93c0,10.3,8.3,18.6,18.6,18.6v18.6c0,10.3,8.3,18.6,18.6,18.6h18.6c10.3,0,18.6-8.3,18.6-18.6v-18.6h111.6
	v18.6c0,10.3,8.3,18.6,18.6,18.6h18.6c10.3,0,18.6-8.3,18.6-18.6v-18.6h3.7c9.3,0,14.9-7.4,14.9-14.9v-96.8h4.7c7.7,0,14-6.3,14-14
	v-46.5C402.9,199.8,396.7,193.5,389,193.5z M198.3,161c0-2.6,2.1-4.7,4.7-4.7h102.3c2.6,0,4.7,2.1,4.7,4.7v9.3
	c0,2.6-2.1,4.7-4.7,4.7H202.9c-2.6,0-4.7-2.1-4.7-4.7V161z M170.4,351.7c-10.3,0-18.6-8.3-18.6-18.6s8.3-18.6,18.6-18.6
	s18.6,8.3,18.6,18.6S180.6,351.7,170.4,351.7z M244.8,286.6h-65.1c-10.3,0-18.6-8.3-18.6-18.6v-55.8c0-10.3,8.3-18.6,18.6-18.6h65.1
	V286.6z M263.4,286.6v-93h65.1c10.3,0,18.6,8.3,18.6,18.6v55.8c0,10.3-8.3,18.6-18.6,18.6H263.4z M337.8,351.7
	c-10.3,0-18.6-8.3-18.6-18.6s8.3-18.6,18.6-18.6c10.3,0,18.6,8.3,18.6,18.6S348.1,351.7,337.8,351.7z"/>
<path class="st2" d="M384.3,188h-4.7v-27.9c0-26.1-57.7-46.5-130.3-46.5s-130.3,20.5-130.3,46.5V188h-4.7c-7.7,0-14,6.2-14,14v46.5
	c0,7.7,6.3,14,14,14h4.7v93c0,10.3,8.3,18.6,18.6,18.6v18.6c0,10.3,8.3,18.6,18.6,18.6h18.6c10.3,0,18.6-8.3,18.6-18.6v-18.6h111.6
	v18.6c0,10.3,8.3,18.6,18.6,18.6h18.6c10.3,0,18.6-8.3,18.6-18.6v-18.6h3.7c9.3,0,14.9-7.4,14.9-14.9v-96.8h4.7c7.7,0,14-6.3,14-14
	V202C398.2,194.3,392,188,384.3,188z M193.5,155.5c0-2.6,2.1-4.7,4.7-4.7h102.3c2.6,0,4.7,2.1,4.7,4.7v9.3c0,2.6-2.1,4.7-4.7,4.7
	H198.2c-2.6,0-4.7-2.1-4.7-4.7V155.5z M165.6,346.2c-10.3,0-18.6-8.3-18.6-18.6c0-10.3,8.3-18.6,18.6-18.6
	c10.3,0,18.6,8.3,18.6,18.6C184.2,337.8,175.9,346.2,165.6,346.2z M240.1,281.1h-65.1c-10.3,0-18.6-8.3-18.6-18.6v-55.8
	c0-10.3,8.3-18.6,18.6-18.6h65.1V281.1z M258.7,281.1v-93h65.1c10.3,0,18.6,8.3,18.6,18.6v55.8c0,10.3-8.3,18.6-18.6,18.6H258.7z
	 M333.1,346.2c-10.3,0-18.6-8.3-18.6-18.6c0-10.3,8.3-18.6,18.6-18.6c10.3,0,18.6,8.3,18.6,18.6
	C351.7,337.8,343.4,346.2,333.1,346.2z"/>
</svg>
