<?xml version="1.0" encoding="utf-8"?>
<!-- Generator: Adobe Illustrator 24.0.0, SVG Export Plug-In . SVG Version: 6.00 Build 0)  -->
<svg version="1.1" id="Calque_1" focusable="false" xmlns="http://www.w3.org/2000/svg" xmlns:xlink="http://www.w3.org/1999/xlink"
	 x="0px" y="0px" viewBox="0 0 512 512" style="enable-background:new 0 0 512 512;" xml:space="preserve">
<style type="text/css">
	.st0{fill:#26A65B;}
	.st1{fill:#1A8244;}
	.st2{fill:#FFFFFF;}
</style>
<rect class="st0" width="512" height="512"/>
<path class="st1" d="M441.7,166h-6.4v-38.6C435.3,91.3,355.4,63,255,63S74.8,91.3,74.8,127.4V166h-6.4c-10.7,0-19.3,8.6-19.3,19.3
	v64.4c0,10.7,8.7,19.3,19.3,19.3h6.4v128.8c0,14.2,11.5,25.8,25.8,25.8v25.8c0,14.2,11.5,25.8,25.8,25.8H152
	c14.2,0,25.8-11.5,25.8-25.8v-25.8h154.5v25.8c0,14.2,11.5,25.8,25.8,25.8h25.8c14.2,0,25.8-11.5,25.8-25.8v-25.8h5.1
	c12.9,0,20.6-10.3,20.6-20.6V269h6.4c10.7,0,19.3-8.7,19.3-19.3v-64.4C461,174.6,452.3,166,441.7,166z M177.8,120.9
	c0-3.6,2.9-6.4,6.4-6.4h141.6c3.6,0,6.4,2.9,6.4,6.4v12.9c0,3.6-2.9,6.4-6.4,6.4H184.2c-3.6,0-6.4-2.9-6.4-6.4V120.9z M139.1,384.9
	c-14.2,0-25.8-11.5-25.8-25.8s11.5-25.8,25.8-25.8s25.8,11.5,25.8,25.8S153.3,384.9,139.1,384.9z M242.1,294.8H152
	c-14.2,0-25.8-11.5-25.8-25.8v-77.3c0-14.2,11.5-25.8,25.8-25.8h90.1V294.8z M267.9,294.8V166H358c14.2,0,25.8,11.5,25.8,25.8V269
	c0,14.2-11.5,25.8-25.8,25.8H267.9z M370.9,384.9c-14.2,0-25.8-11.5-25.8-25.8s11.5-25.8,25.8-25.8s25.8,11.5,25.8,25.8
	S385.1,384.9,370.9,384.9z"/>
<path class="st2" d="M435.1,158.4h-6.4v-38.6c0-36-79.8-64.4-180.3-64.4S68.2,83.7,68.2,119.8v38.6h-6.4c-10.7,0-19.3,8.6-19.3,19.3
	v64.4c0,10.7,8.7,19.3,19.3,19.3h6.4v128.8c0,14.2,11.5,25.8,25.8,25.8v25.8c0,14.2,11.5,25.8,25.8,25.8h25.7
	c14.2,0,25.8-11.5,25.8-25.8v-25.8h154.5v25.8c0,14.2,11.5,25.8,25.8,25.8h25.8c14.2,0,25.8-11.5,25.8-25.8v-25.8h5.1
	c12.9,0,20.6-10.3,20.6-20.6V261.4h6.4c10.7,0,19.3-8.7,19.3-19.3v-64.4C454.4,167,445.8,158.4,435.1,158.4z M171.2,113.3
	c0-3.6,2.9-6.4,6.4-6.4h141.6c3.6,0,6.4,2.9,6.4,6.4v12.9c0,3.6-2.9,6.4-6.4,6.4H177.6c-3.6,0-6.4-2.9-6.4-6.4V113.3z M132.6,377.3
	c-14.2,0-25.7-11.5-25.7-25.8s11.5-25.8,25.7-25.8s25.8,11.5,25.8,25.8S146.8,377.3,132.6,377.3z M235.6,287.1h-90.1
	c-14.2,0-25.7-11.5-25.7-25.8v-77.2c0-14.2,11.5-25.8,25.7-25.8h90.1V287.1z M261.3,287.1V158.4h90.1c14.2,0,25.8,11.5,25.8,25.8
	v77.2c0,14.2-11.5,25.8-25.8,25.8H261.3z M364.3,377.3c-14.2,0-25.8-11.5-25.8-25.8s11.5-25.8,25.8-25.8s25.8,11.5,25.8,25.8
	S378.5,377.3,364.3,377.3z"/>
</svg>
